<svg xmlns="http://www.w3.org/2000/svg" xmlns:xlink="http://www.w3.org/1999/xlink" width="500" zoomAndPan="magnify" viewBox="0 0 375 374.999991" height="500" preserveAspectRatio="xMidYMid meet" version="1.0"><defs><g/><clipPath id="62335a7c8e"><path d="M 0 0 L 375 0 L 375 375 L 0 375 Z M 0 0 " clip-rule="nonzero"/></clipPath><clipPath id="6fbfb949b1"><rect x="0" width="375" y="0" height="375"/></clipPath></defs><g transform="matrix(1, 0, 0, 1, 0, 0)"><g clip-path="url(#6fbfb949b1)"><g clip-path="url(#62335a7c8e)"><g fill="#ffffff" fill-opacity="1"><g transform="translate(102.511948, 646.403267)"><g><path d="M 97.875 -297.8125 L 69.546875 -409.59375 L -3.609375 -320.109375 L -54.78125 -367.171875 L 28.109375 -447.5 L -85.84375 -465.875 L -70.859375 -533.78125 L 40.359375 -502.328125 L -0.453125 -610.171875 L 65.4375 -630.921875 L 94.046875 -519.21875 L 167.203125 -608.71875 L 218.375 -561.640625 L 135.203125 -481.21875 L 249.4375 -462.9375 L 234.453125 -395.046875 L 123.234375 -426.484375 L 163.765625 -318.5625 Z M 97.875 -297.8125 "/></g></g></g></g></g></g></svg>