<svg xmlns="http://www.w3.org/2000/svg" xmlns:xlink="http://www.w3.org/1999/xlink" width="200" zoomAndPan="magnify" viewBox="0 0 150 37.5" height="50" preserveAspectRatio="xMidYMid meet" version="1.0"><defs><g/><clipPath id="475c7c11e8"><path d="M 2 0 L 145 0 L 145 37.007812 L 2 37.007812 Z M 2 0 " clip-rule="nonzero"/></clipPath><clipPath id="052638d971"><path d="M 0.171875 0 L 35 0 L 35 37.007812 L 0.171875 37.007812 Z M 0.171875 0 " clip-rule="nonzero"/></clipPath><clipPath id="d1559d5743"><rect x="0" width="35" y="0" height="38"/></clipPath><clipPath id="cb3184b40c"><path d="M 0.171875 0 L 36 0 L 36 37.007812 L 0.171875 37.007812 Z M 0.171875 0 " clip-rule="nonzero"/></clipPath><clipPath id="b7b57699e5"><rect x="0" width="36" y="0" height="38"/></clipPath><clipPath id="27b9f4b688"><path d="M 1 0 L 37 0 L 37 37.007812 L 1 37.007812 Z M 1 0 " clip-rule="nonzero"/></clipPath><clipPath id="d9aea347e3"><rect x="0" width="36" y="0" height="38"/></clipPath><clipPath id="2d922edbdc"><path d="M 28 9 L 142.039062 9 L 142.039062 29 L 28 29 Z M 28 9 " clip-rule="nonzero"/></clipPath><clipPath id="0626158274"><rect x="0" width="115" y="0" height="20"/></clipPath><clipPath id="f03b26d372"><rect x="0" width="143" y="0" height="38"/></clipPath></defs><g clip-path="url(#475c7c11e8)"><g transform="matrix(1, 0, 0, 1, 2, -0.000000000000001478)"><g clip-path="url(#f03b26d372)"><g clip-path="url(#052638d971)"><g transform="matrix(1, 0, 0, 1, 0, -0.000000000000001478)"><g clip-path="url(#d1559d5743)"><g fill="#dac7ff" fill-opacity="1"><g transform="translate(11.44841, 41.16596)"><g><path d="M 4.71875 -14.328125 L 3.34375 -19.6875 L -0.171875 -15.390625 L -2.625 -17.671875 L 1.34375 -21.53125 L -4.109375 -22.40625 L -3.40625 -25.6875 L 1.9375 -24.171875 L -0.015625 -29.34375 L 3.140625 -30.34375 L 4.515625 -24.984375 L 8.046875 -29.28125 L 10.5 -27 L 6.5 -23.15625 L 11.984375 -22.265625 L 11.28125 -18.984375 L 5.921875 -20.5 L 7.875 -15.328125 Z M 4.71875 -14.328125 "/></g></g></g></g></g></g><g clip-path="url(#cb3184b40c)"><g transform="matrix(1, 0, 0, 1, 0, -0.000000000000001478)"><g clip-path="url(#b7b57699e5)"><g fill="#bc9aff" fill-opacity="1"><g transform="translate(12.132428, 41.16596)"><g><path d="M 4.71875 -14.328125 L 3.34375 -19.6875 L -0.171875 -15.390625 L -2.625 -17.671875 L 1.34375 -21.53125 L -4.109375 -22.40625 L -3.40625 -25.6875 L 1.9375 -24.171875 L -0.015625 -29.34375 L 3.140625 -30.34375 L 4.515625 -24.984375 L 8.046875 -29.28125 L 10.5 -27 L 6.5 -23.15625 L 11.984375 -22.265625 L 11.28125 -18.984375 L 5.921875 -20.5 L 7.875 -15.328125 Z M 4.71875 -14.328125 "/></g></g></g></g></g></g><g clip-path="url(#27b9f4b688)"><g transform="matrix(1, 0, 0, 1, 1, -0.000000000000001478)"><g clip-path="url(#d9aea347e3)"><g fill="#9a67ff" fill-opacity="1"><g transform="translate(11.892232, 41.200497)"><g><path d="M 4.71875 -14.328125 L 3.34375 -19.6875 L -0.171875 -15.390625 L -2.625 -17.671875 L 1.34375 -21.53125 L -4.109375 -22.40625 L -3.40625 -25.6875 L 1.9375 -24.171875 L -0.015625 -29.34375 L 3.140625 -30.34375 L 4.515625 -24.984375 L 8.046875 -29.28125 L 10.5 -27 L 6.5 -23.15625 L 11.984375 -22.265625 L 11.28125 -18.984375 L 5.921875 -20.5 L 7.875 -15.328125 Z M 4.71875 -14.328125 "/></g></g></g></g></g></g><g clip-path="url(#2d922edbdc)"><g transform="matrix(1, 0, 0, 1, 28, 9)"><g clip-path="url(#0626158274)"><g fill="#9560ff" fill-opacity="1"><g transform="translate(0.662236, 15.582325)"><g><path d="M 1 0 L 1 -1.46875 L 4.890625 -5.28125 C 5.253906 -5.65625 5.5625 -5.988281 5.8125 -6.28125 C 6.0625 -6.570312 6.25 -6.851562 6.375 -7.125 C 6.5 -7.394531 6.5625 -7.6875 6.5625 -8 C 6.5625 -8.351562 6.476562 -8.65625 6.3125 -8.90625 C 6.15625 -9.164062 5.9375 -9.363281 5.65625 -9.5 C 5.375 -9.644531 5.054688 -9.71875 4.703125 -9.71875 C 4.328125 -9.71875 4 -9.640625 3.71875 -9.484375 C 3.445312 -9.328125 3.234375 -9.109375 3.078125 -8.828125 C 2.929688 -8.554688 2.859375 -8.226562 2.859375 -7.84375 L 0.9375 -7.84375 C 0.9375 -8.5625 1.097656 -9.179688 1.421875 -9.703125 C 1.742188 -10.234375 2.1875 -10.640625 2.75 -10.921875 C 3.320312 -11.210938 3.984375 -11.359375 4.734375 -11.359375 C 5.484375 -11.359375 6.140625 -11.21875 6.703125 -10.9375 C 7.273438 -10.65625 7.71875 -10.269531 8.03125 -9.78125 C 8.34375 -9.289062 8.5 -8.734375 8.5 -8.109375 C 8.5 -7.691406 8.421875 -7.28125 8.265625 -6.875 C 8.109375 -6.46875 7.828125 -6.015625 7.421875 -5.515625 C 7.015625 -5.023438 6.453125 -4.429688 5.734375 -3.734375 L 3.796875 -1.765625 L 3.796875 -1.703125 L 8.671875 -1.703125 L 8.671875 0 Z M 1 0 "/></g></g></g><g fill="#9560ff" fill-opacity="1"><g transform="translate(10.237213, 15.582325)"><g><path d="M 5.546875 -11.203125 L 5.546875 0 L 3.515625 0 L 3.515625 -9.234375 L 3.453125 -9.234375 L 0.84375 -7.5625 L 0.84375 -9.421875 L 3.625 -11.203125 Z M 5.546875 -11.203125 "/></g></g></g><g fill="#9560ff" fill-opacity="1"><g transform="translate(17.645508, 15.582325)"><g><path d="M 10.703125 -7.421875 L 8.65625 -7.421875 C 8.59375 -7.753906 8.484375 -8.050781 8.328125 -8.3125 C 8.171875 -8.570312 7.972656 -8.789062 7.734375 -8.96875 C 7.503906 -9.15625 7.238281 -9.296875 6.9375 -9.390625 C 6.644531 -9.484375 6.328125 -9.53125 5.984375 -9.53125 C 5.378906 -9.53125 4.835938 -9.378906 4.359375 -9.078125 C 3.890625 -8.773438 3.519531 -8.328125 3.25 -7.734375 C 2.988281 -7.148438 2.859375 -6.441406 2.859375 -5.609375 C 2.859375 -4.742188 2.992188 -4.019531 3.265625 -3.4375 C 3.535156 -2.851562 3.90625 -2.410156 4.375 -2.109375 C 4.84375 -1.816406 5.378906 -1.671875 5.984375 -1.671875 C 6.316406 -1.671875 6.628906 -1.710938 6.921875 -1.796875 C 7.210938 -1.890625 7.472656 -2.023438 7.703125 -2.203125 C 7.941406 -2.378906 8.144531 -2.59375 8.3125 -2.84375 C 8.476562 -3.101562 8.59375 -3.394531 8.65625 -3.71875 L 10.703125 -3.703125 C 10.617188 -3.171875 10.453125 -2.671875 10.203125 -2.203125 C 9.953125 -1.742188 9.617188 -1.332031 9.203125 -0.96875 C 8.796875 -0.613281 8.316406 -0.335938 7.765625 -0.140625 C 7.222656 0.0546875 6.617188 0.15625 5.953125 0.15625 C 4.960938 0.15625 4.082031 -0.0703125 3.3125 -0.53125 C 2.539062 -0.988281 1.929688 -1.644531 1.484375 -2.5 C 1.046875 -3.363281 0.828125 -4.398438 0.828125 -5.609375 C 0.828125 -6.804688 1.050781 -7.832031 1.5 -8.6875 C 1.945312 -9.550781 2.554688 -10.210938 3.328125 -10.671875 C 4.097656 -11.128906 4.972656 -11.359375 5.953125 -11.359375 C 6.578125 -11.359375 7.15625 -11.269531 7.6875 -11.09375 C 8.226562 -10.914062 8.707031 -10.660156 9.125 -10.328125 C 9.539062 -9.992188 9.882812 -9.582031 10.15625 -9.09375 C 10.425781 -8.601562 10.609375 -8.046875 10.703125 -7.421875 Z M 10.703125 -7.421875 "/></g></g></g><g fill="#9560ff" fill-opacity="1"><g transform="translate(29.102651, 15.582325)"><g><path d="M 4.734375 0.171875 C 3.890625 0.171875 3.160156 -0.00390625 2.546875 -0.359375 C 1.941406 -0.710938 1.472656 -1.210938 1.140625 -1.859375 C 0.816406 -2.503906 0.65625 -3.269531 0.65625 -4.15625 C 0.65625 -5.019531 0.816406 -5.773438 1.140625 -6.421875 C 1.472656 -7.078125 1.9375 -7.585938 2.53125 -7.953125 C 3.132812 -8.328125 3.835938 -8.515625 4.640625 -8.515625 C 5.148438 -8.515625 5.632812 -8.429688 6.09375 -8.265625 C 6.5625 -8.097656 6.972656 -7.835938 7.328125 -7.484375 C 7.679688 -7.140625 7.957031 -6.703125 8.15625 -6.171875 C 8.363281 -5.640625 8.46875 -5.003906 8.46875 -4.265625 L 8.46875 -3.65625 L 1.59375 -3.65625 L 1.59375 -5 L 6.578125 -5 C 6.578125 -5.375 6.492188 -5.707031 6.328125 -6 C 6.171875 -6.300781 5.945312 -6.535156 5.65625 -6.703125 C 5.375 -6.878906 5.039062 -6.96875 4.65625 -6.96875 C 4.25 -6.96875 3.894531 -6.867188 3.59375 -6.671875 C 3.289062 -6.484375 3.050781 -6.226562 2.875 -5.90625 C 2.707031 -5.59375 2.625 -5.25 2.625 -4.875 L 2.625 -3.703125 C 2.625 -3.210938 2.710938 -2.796875 2.890625 -2.453125 C 3.066406 -2.109375 3.316406 -1.84375 3.640625 -1.65625 C 3.960938 -1.46875 4.335938 -1.375 4.765625 -1.375 C 5.054688 -1.375 5.316406 -1.414062 5.546875 -1.5 C 5.773438 -1.582031 5.972656 -1.703125 6.140625 -1.859375 C 6.316406 -2.023438 6.453125 -2.226562 6.546875 -2.46875 L 8.390625 -2.25 C 8.273438 -1.757812 8.050781 -1.332031 7.71875 -0.96875 C 7.394531 -0.613281 6.976562 -0.332031 6.46875 -0.125 C 5.96875 0.0703125 5.390625 0.171875 4.734375 0.171875 Z M 4.734375 0.171875 "/></g></g></g><g fill="#9560ff" fill-opacity="1"><g transform="translate(38.234442, 15.582325)"><g><path d="M 3 -4.921875 L 3 0 L 1.015625 0 L 1.015625 -8.40625 L 2.90625 -8.40625 L 2.90625 -6.96875 L 3.015625 -6.96875 C 3.203125 -7.445312 3.507812 -7.820312 3.9375 -8.09375 C 4.363281 -8.375 4.890625 -8.515625 5.515625 -8.515625 C 6.097656 -8.515625 6.601562 -8.390625 7.03125 -8.140625 C 7.46875 -7.890625 7.800781 -7.53125 8.03125 -7.0625 C 8.269531 -6.59375 8.390625 -6.019531 8.390625 -5.34375 L 8.390625 0 L 6.40625 0 L 6.40625 -5.046875 C 6.40625 -5.609375 6.257812 -6.046875 5.96875 -6.359375 C 5.6875 -6.679688 5.289062 -6.84375 4.78125 -6.84375 C 4.425781 -6.84375 4.113281 -6.765625 3.84375 -6.609375 C 3.582031 -6.460938 3.375 -6.242188 3.21875 -5.953125 C 3.070312 -5.671875 3 -5.328125 3 -4.921875 Z M 3 -4.921875 "/></g></g></g><g fill="#9560ff" fill-opacity="1"><g transform="translate(47.628862, 15.582325)"><g><path d="M 5.21875 -8.40625 L 5.21875 -6.875 L 0.390625 -6.875 L 0.390625 -8.40625 Z M 1.578125 -10.421875 L 3.5625 -10.421875 L 3.5625 -2.53125 C 3.5625 -2.257812 3.597656 -2.050781 3.671875 -1.90625 C 3.753906 -1.769531 3.863281 -1.675781 4 -1.625 C 4.132812 -1.570312 4.285156 -1.546875 4.453125 -1.546875 C 4.578125 -1.546875 4.691406 -1.554688 4.796875 -1.578125 C 4.898438 -1.597656 4.976562 -1.613281 5.03125 -1.625 L 5.359375 -0.078125 C 5.253906 -0.046875 5.101562 -0.0078125 4.90625 0.03125 C 4.71875 0.0820312 4.484375 0.109375 4.203125 0.109375 C 3.703125 0.128906 3.253906 0.0546875 2.859375 -0.109375 C 2.460938 -0.273438 2.144531 -0.53125 1.90625 -0.875 C 1.675781 -1.226562 1.566406 -1.671875 1.578125 -2.203125 Z M 1.578125 -10.421875 "/></g></g></g><g fill="#9560ff" fill-opacity="1"><g transform="translate(53.483272, 15.582325)"><g><path d="M 6.375 -3.53125 L 6.375 -8.40625 L 8.359375 -8.40625 L 8.359375 0 L 6.4375 0 L 6.4375 -1.5 L 6.34375 -1.5 C 6.15625 -1.019531 5.84375 -0.628906 5.40625 -0.328125 C 4.976562 -0.0351562 4.445312 0.109375 3.8125 0.109375 C 3.269531 0.109375 2.785156 -0.0078125 2.359375 -0.25 C 1.941406 -0.5 1.613281 -0.859375 1.375 -1.328125 C 1.132812 -1.804688 1.015625 -2.378906 1.015625 -3.046875 L 1.015625 -8.40625 L 3 -8.40625 L 3 -3.359375 C 3 -2.828125 3.144531 -2.40625 3.4375 -2.09375 C 3.726562 -1.78125 4.109375 -1.625 4.578125 -1.625 C 4.867188 -1.625 5.148438 -1.691406 5.421875 -1.828125 C 5.703125 -1.972656 5.929688 -2.1875 6.109375 -2.46875 C 6.285156 -2.75 6.375 -3.101562 6.375 -3.53125 Z M 6.375 -3.53125 "/></g></g></g><g fill="#9560ff" fill-opacity="1"><g transform="translate(62.855809, 15.582325)"><g><path d="M 1.015625 0 L 1.015625 -8.40625 L 2.9375 -8.40625 L 2.9375 -7 L 3.03125 -7 C 3.175781 -7.488281 3.4375 -7.863281 3.8125 -8.125 C 4.1875 -8.394531 4.613281 -8.53125 5.09375 -8.53125 C 5.207031 -8.53125 5.332031 -8.523438 5.46875 -8.515625 C 5.601562 -8.503906 5.71875 -8.488281 5.8125 -8.46875 L 5.8125 -6.640625 C 5.726562 -6.671875 5.59375 -6.695312 5.40625 -6.71875 C 5.226562 -6.75 5.054688 -6.765625 4.890625 -6.765625 C 4.523438 -6.765625 4.195312 -6.6875 3.90625 -6.53125 C 3.625 -6.375 3.398438 -6.15625 3.234375 -5.875 C 3.078125 -5.601562 3 -5.289062 3 -4.9375 L 3 0 Z M 1.015625 0 "/></g></g></g><g fill="#9560ff" fill-opacity="1"><g transform="translate(69.230009, 15.582325)"><g><path d="M 2.25 3.15625 C 1.976562 3.15625 1.726562 3.132812 1.5 3.09375 C 1.269531 3.050781 1.085938 3 0.953125 2.9375 L 1.421875 1.40625 C 1.703125 1.488281 1.957031 1.523438 2.1875 1.515625 C 2.414062 1.515625 2.613281 1.445312 2.78125 1.3125 C 2.957031 1.175781 3.109375 0.945312 3.234375 0.625 L 3.390625 0.171875 L 0.34375 -8.40625 L 2.453125 -8.40625 L 4.390625 -2.0625 L 4.46875 -2.0625 L 6.421875 -8.40625 L 8.53125 -8.40625 L 5.15625 1.015625 C 5 1.460938 4.789062 1.84375 4.53125 2.15625 C 4.269531 2.476562 3.953125 2.722656 3.578125 2.890625 C 3.210938 3.066406 2.769531 3.15625 2.25 3.15625 Z M 2.25 3.15625 "/></g></g></g><g fill="#9560ff" fill-opacity="1"><g transform="translate(78.104645, 15.582325)"><g><path d="M 1.109375 0 L 1.109375 -11.203125 L 3.140625 -11.203125 L 3.140625 -1.703125 L 8.0625 -1.703125 L 8.0625 0 Z M 1.109375 0 "/></g></g></g><g fill="#9560ff" fill-opacity="1"><g transform="translate(86.826083, 15.582325)"><g><path d="M 3.4375 0.171875 C 2.90625 0.171875 2.425781 0.078125 2 -0.109375 C 1.570312 -0.304688 1.234375 -0.59375 0.984375 -0.96875 C 0.742188 -1.34375 0.625 -1.804688 0.625 -2.359375 C 0.625 -2.828125 0.710938 -3.21875 0.890625 -3.53125 C 1.066406 -3.84375 1.304688 -4.09375 1.609375 -4.28125 C 1.910156 -4.46875 2.25 -4.609375 2.625 -4.703125 C 3.007812 -4.796875 3.40625 -4.863281 3.8125 -4.90625 C 4.300781 -4.957031 4.695312 -5.003906 5 -5.046875 C 5.3125 -5.085938 5.535156 -5.15625 5.671875 -5.25 C 5.816406 -5.34375 5.890625 -5.484375 5.890625 -5.671875 L 5.890625 -5.703125 C 5.890625 -6.109375 5.765625 -6.425781 5.515625 -6.65625 C 5.273438 -6.882812 4.925781 -7 4.46875 -7 C 3.976562 -7 3.59375 -6.890625 3.3125 -6.671875 C 3.03125 -6.460938 2.84375 -6.21875 2.75 -5.9375 L 0.890625 -6.1875 C 1.035156 -6.695312 1.273438 -7.125 1.609375 -7.46875 C 1.953125 -7.820312 2.363281 -8.082031 2.84375 -8.25 C 3.332031 -8.425781 3.867188 -8.515625 4.453125 -8.515625 C 4.859375 -8.515625 5.257812 -8.46875 5.65625 -8.375 C 6.0625 -8.28125 6.429688 -8.125 6.765625 -7.90625 C 7.097656 -7.6875 7.363281 -7.390625 7.5625 -7.015625 C 7.769531 -6.648438 7.875 -6.1875 7.875 -5.625 L 7.875 0 L 5.96875 0 L 5.96875 -1.15625 L 5.90625 -1.15625 C 5.78125 -0.914062 5.609375 -0.695312 5.390625 -0.5 C 5.179688 -0.300781 4.910156 -0.140625 4.578125 -0.015625 C 4.253906 0.109375 3.875 0.171875 3.4375 0.171875 Z M 3.953125 -1.28125 C 4.347656 -1.28125 4.691406 -1.359375 4.984375 -1.515625 C 5.273438 -1.679688 5.5 -1.894531 5.65625 -2.15625 C 5.8125 -2.414062 5.890625 -2.703125 5.890625 -3.015625 L 5.890625 -4 C 5.835938 -3.945312 5.734375 -3.898438 5.578125 -3.859375 C 5.429688 -3.816406 5.265625 -3.78125 5.078125 -3.75 C 4.898438 -3.71875 4.722656 -3.6875 4.546875 -3.65625 C 4.367188 -3.632812 4.210938 -3.613281 4.078125 -3.59375 C 3.785156 -3.550781 3.519531 -3.484375 3.28125 -3.390625 C 3.050781 -3.304688 2.867188 -3.179688 2.734375 -3.015625 C 2.597656 -2.859375 2.53125 -2.648438 2.53125 -2.390625 C 2.53125 -2.023438 2.660156 -1.75 2.921875 -1.5625 C 3.191406 -1.375 3.535156 -1.28125 3.953125 -1.28125 Z M 3.953125 -1.28125 "/></g></g></g><g fill="#9560ff" fill-opacity="1"><g transform="translate(95.678831, 15.582325)"><g><path d="M 1.109375 0 L 1.109375 -11.203125 L 3.078125 -11.203125 L 3.078125 -7.015625 L 3.171875 -7.015625 C 3.273438 -7.210938 3.414062 -7.425781 3.59375 -7.65625 C 3.78125 -7.894531 4.03125 -8.097656 4.34375 -8.265625 C 4.664062 -8.429688 5.070312 -8.515625 5.5625 -8.515625 C 6.21875 -8.515625 6.804688 -8.347656 7.328125 -8.015625 C 7.847656 -7.679688 8.257812 -7.191406 8.5625 -6.546875 C 8.875 -5.910156 9.03125 -5.125 9.03125 -4.1875 C 9.03125 -3.269531 8.878906 -2.488281 8.578125 -1.84375 C 8.273438 -1.195312 7.863281 -0.703125 7.34375 -0.359375 C 6.820312 -0.0234375 6.234375 0.140625 5.578125 0.140625 C 5.097656 0.140625 4.695312 0.0625 4.375 -0.09375 C 4.0625 -0.25 3.804688 -0.441406 3.609375 -0.671875 C 3.421875 -0.898438 3.273438 -1.117188 3.171875 -1.328125 L 3.046875 -1.328125 L 3.046875 0 Z M 3.046875 -4.203125 C 3.046875 -3.660156 3.125 -3.179688 3.28125 -2.765625 C 3.4375 -2.359375 3.660156 -2.039062 3.953125 -1.8125 C 4.242188 -1.59375 4.597656 -1.484375 5.015625 -1.484375 C 5.453125 -1.484375 5.816406 -1.597656 6.109375 -1.828125 C 6.410156 -2.066406 6.632812 -2.390625 6.78125 -2.796875 C 6.9375 -3.203125 7.015625 -3.671875 7.015625 -4.203125 C 7.015625 -4.722656 6.941406 -5.1875 6.796875 -5.59375 C 6.648438 -6 6.425781 -6.316406 6.125 -6.546875 C 5.832031 -6.773438 5.460938 -6.890625 5.015625 -6.890625 C 4.597656 -6.890625 4.238281 -6.773438 3.9375 -6.546875 C 3.644531 -6.328125 3.421875 -6.015625 3.265625 -5.609375 C 3.117188 -5.210938 3.046875 -4.742188 3.046875 -4.203125 Z M 3.046875 -4.203125 "/></g></g></g><g fill="#9560ff" fill-opacity="1"><g transform="translate(105.39059, 15.582325)"><g><path d="M 7.65625 -6.1875 L 5.859375 -5.984375 C 5.804688 -6.171875 5.71875 -6.34375 5.59375 -6.5 C 5.46875 -6.65625 5.296875 -6.78125 5.078125 -6.875 C 4.867188 -6.976562 4.613281 -7.03125 4.3125 -7.03125 C 3.894531 -7.03125 3.546875 -6.941406 3.265625 -6.765625 C 2.984375 -6.585938 2.847656 -6.359375 2.859375 -6.078125 C 2.847656 -5.828125 2.9375 -5.625 3.125 -5.46875 C 3.3125 -5.320312 3.617188 -5.195312 4.046875 -5.09375 L 5.46875 -4.796875 C 6.269531 -4.617188 6.863281 -4.34375 7.25 -3.96875 C 7.632812 -3.601562 7.832031 -3.117188 7.84375 -2.515625 C 7.832031 -1.984375 7.675781 -1.515625 7.375 -1.109375 C 7.070312 -0.710938 6.648438 -0.398438 6.109375 -0.171875 C 5.566406 0.0546875 4.945312 0.171875 4.25 0.171875 C 3.21875 0.171875 2.390625 -0.0390625 1.765625 -0.46875 C 1.140625 -0.90625 0.765625 -1.515625 0.640625 -2.296875 L 2.578125 -2.484375 C 2.660156 -2.097656 2.84375 -1.804688 3.125 -1.609375 C 3.414062 -1.421875 3.789062 -1.328125 4.25 -1.328125 C 4.71875 -1.328125 5.09375 -1.421875 5.375 -1.609375 C 5.664062 -1.804688 5.8125 -2.050781 5.8125 -2.34375 C 5.8125 -2.582031 5.71875 -2.78125 5.53125 -2.9375 C 5.34375 -3.09375 5.054688 -3.210938 4.671875 -3.296875 L 3.25 -3.59375 C 2.4375 -3.757812 1.835938 -4.039062 1.453125 -4.4375 C 1.066406 -4.84375 0.875 -5.351562 0.875 -5.96875 C 0.875 -6.476562 1.015625 -6.925781 1.296875 -7.3125 C 1.585938 -7.695312 1.988281 -7.992188 2.5 -8.203125 C 3.007812 -8.410156 3.601562 -8.515625 4.28125 -8.515625 C 5.257812 -8.515625 6.03125 -8.300781 6.59375 -7.875 C 7.164062 -7.457031 7.519531 -6.894531 7.65625 -6.1875 Z M 7.65625 -6.1875 "/></g></g></g></g></g></g></g></g></g></svg>